<?xml version="1.0" encoding="utf-8"?>
<!-- Svg Vector Icons : http://www.onlinewebfonts.com/icon -->
<!DOCTYPE svg PUBLIC "-//W3C//DTD SVG 1.1//EN" "http://www.w3.org/Graphics/SVG/1.1/DTD/svg11.dtd">
<svg version="1.1" xmlns="http://www.w3.org/2000/svg" xmlns:xlink="http://www.w3.org/1999/xlink" x="0px" y="0px" viewBox="0 0 256 256" enable-background="new 0 0 256 256" xml:space="preserve">
<metadata> Svg Vector Icons : http://www.onlinewebfonts.com/icon </metadata>
<g><g><g><path fill="#000000" d="M21,55c-4.4,0.9-8.5,4.4-10.2,8.6c-0.9,2.5-0.9,2.8-0.8,65.2l0.1,62.6l1.2,2.4c0.7,1.3,2.2,3.2,3.4,4.2c4.2,3.6-6.1,3.3,114,3.2l107.5-0.1l2.5-1.4c3-1.7,5.6-4.9,6.6-8c0.5-1.7,0.6-13.7,0.6-64c0-59.9,0-61.9-0.9-64.1c-1.2-3-4.3-6.3-7.3-7.7l-2.4-1.1l-106.4,0C70.5,54.7,21.9,54.8,21,55z M49,108c2.4,1.2,4.2,3.3,4.8,5.5c0.2,0.9,0.5,5.4,0.5,10v8.3l1.4,2.6l1.4,2.5l-2.7,2.4c-1.5,1.3-3,2.4-3.5,2.5c-0.4,0-1.6-0.9-2.6-2.1l-1.8-2l-1.1,1.1c-4.2,4.5-13.8,4.2-16.7-0.4c-3.4-5.5-1.5-12.7,4-15.6c2.1-1.2,8.7-2.7,11.5-2.7c1,0,1.1-0.2,1.1-1.8c0-3.3-1.5-5.1-4.4-5.1c-1.2,0-3.9,1.2-3.9,1.8c0,0.2-0.4,1-0.9,1.8l-0.9,1.4l-3.4-0.4c-1.8-0.2-3.5-0.6-3.7-0.9c-0.4-0.6,0.6-3.7,1.9-5.4c1.1-1.5,3.4-3,6-4C38.8,106.3,46.6,106.8,49,108z M81.3,107.6c1.7,0.8,2.9,1.9,4.2,4c0.4,0.7,0.6,0.6,1.5-0.9c1.2-1.9,5-4,7.2-4c3.6,0,7.2,2.2,8.3,5.2c0.6,1.7,0.7,4,0.6,15.8l-0.1,13.8H99h-3.9l-0.2-12c-0.2-10.5-0.3-12.2-1.1-13.3c-1.3-2-5.1-1.6-6.4,0.7c-0.4,0.7-0.6,4.5-0.8,12.8l-0.2,11.8l-3.8,0.1c-3.2,0.1-3.8,0-4.2-0.7c-0.2-0.5-0.4-5.7-0.4-11.7c0-11.7-0.2-13.6-2.2-14.1c-1.9-0.5-3.6,0-4.6,1.3c-0.9,1.2-1,2-1.2,13.2l-0.2,11.9l-3.6,0.1c-2.3,0.1-3.9,0-4.3-0.4c-0.6-0.4-0.6-3.3-0.6-16.5c0-8.8,0.2-16.2,0.4-16.6c0.2-0.4,1.4-0.6,4-0.5l3.6,0.1l0.1,2.2l0.1,2.2l1.4-1.9C73.4,107,77.6,105.9,81.3,107.6z M129,107.4c2.8,1,4.6,2.4,5.7,4.5c0.9,1.8,1,2.8,1.2,11.2c0.2,8.8,0.2,9.3,1.3,11.2c0.6,1.1,1.1,2.3,1,2.6c-0.2,0.9-5,4.9-5.8,4.9c-0.7,0-3.8-3-3.8-3.8c0-0.2-0.8,0.2-1.7,0.9c-3.2,2.5-4.7,3-8.4,3c-3.7,0-5.4-0.6-7.2-2.6c-1.6-1.7-2.4-4.2-2.4-7.1c0-3.2,0.9-5.5,3.1-7.8c2.1-2.1,5.3-3.4,10.7-4.1l4.2-0.6v-2.3c0-1.8-0.2-2.5-1.2-3.4c-2.1-2.2-5.8-1.2-7.4,1.8c-1,2-1.1,2-6.1,1.3c-2.4-0.3-2.8-1-1.7-3.6c1-2.6,4.2-5.5,7.1-6.4C120.3,106.6,126.6,106.5,129,107.4z M189.7,108.3c2.9,1.4,5.2,4.1,6.7,8c0.9,2.2,1,3.5,1.1,8.4v5.8l-1.8,3.6c-3,5.9-7.2,8.4-13.3,7.9c-4.8-0.4-8.3-2.9-10.6-7.5c-3.4-6.7-2.7-17,1.5-22.8c1.4-2,4.6-4.1,7.1-4.8C182.9,106.5,187,107,189.7,108.3z M223.9,108.1c3.7,2.3,4.4,5.5,4.4,21.5c0,9-0.1,11.3-0.6,11.7c-0.4,0.4-2,0.5-4.3,0.4l-3.6-0.1l-0.2-12c-0.2-10.2-0.3-12.2-1-13.2c-1.7-2.5-5.3-1.7-6.5,1.4c-0.6,1.6-0.8,3.7-0.8,12.4c0,7.6-0.1,10.7-0.6,11.1c-0.8,0.8-7,0.7-7.7-0.1c-0.4-0.4-0.5-5.3-0.4-16.9l0.1-16.3h3.9h3.9l0.3,2.5c0.1,1.4,0.3,2.3,0.3,1.9c0.2-1.3,2.5-3.9,4.4-4.7C217.9,106.4,221.5,106.7,223.9,108.1z M165.2,107.4c0.6,0.2,0.7,1,0.7,3.1v2.8l-5.8,8.2c-3.2,4.5-5.8,8.3-5.8,8.4c0,0.1,1.2,0.3,2.7,0.5c4,0.5,8.3,1.9,9.1,3.1c0.9,1.3,1,6,0,6.7c-0.5,0.4-1.1,0.3-2.7-0.4c-5.9-2.5-12.5-2.5-18.5,0.1c-2.9,1.2-3.2,0.8-3-3.8l0.1-3.5l6.3-9l6.3-9l-4.7-0.1c-7-0.2-6.7,0-6.7-3.8c0-2.1,0.2-3.3,0.6-3.4C144.8,107.1,164.3,107.1,165.2,107.4z M160.1,143.8c0.9,0.4,1.7,1.1,1.9,1.6c0.4,1.2-0.5,6-1.7,9c-1.6,4.3-5.6,9-6.7,7.9c-0.1-0.1,0.5-2.4,1.3-5c2.1-6.2,2.4-7.8,1.5-9c-0.6-0.8-1.2-0.9-7.6-0.8c-3.8,0-7-0.1-7-0.3c0-0.8,2.1-2.1,5-3.1C150.6,143,157.6,142.7,160.1,143.8z M60.8,147.3c26,13.7,58.3,15.7,85.3,5.4c4.8-1.8,6.2-1.9,6.4-0.4c0.2,1.3-2.8,3.5-9.4,6.8c-21.3,10.5-47.2,10.7-68.8,0.3c-8-3.9-19.4-12.1-18.8-13.6c0.1-0.4,0.4-0.7,0.6-0.7S58.4,146,60.8,147.3z"/><path fill="#000000" d="M40.2,125.9c-2.2,0.8-3.3,2-3.7,4.2c-0.7,4,2,6.6,5.4,5.3c2.1-0.9,3.3-3.3,3.6-7l0.2-3.2h-1.8C42.8,125.2,41.2,125.5,40.2,125.9z"/><path fill="#000000" d="M121.4,126c-2.5,1.2-3.4,2.5-3.4,5.3c0,1.8,0.2,2.4,1.2,3.4c1,1,1.5,1.1,2.8,0.9c3.1-0.5,4.8-3.1,4.8-7.7v-2.8H125C124,125.2,122.4,125.6,121.4,126z"/><path fill="#000000" d="M181.1,114.4c-1.5,1.8-1.9,3.3-2.1,8c-0.3,7.8,0.9,12.1,3.7,13.1c1.6,0.6,3.6-0.5,4.7-2.4c1.8-3.1,1.6-14.9-0.3-17.7c-0.8-1.3-1.3-1.5-3.1-1.7C182.4,113.6,181.6,113.8,181.1,114.4z"/></g></g></g>
</svg>